<svg width="17" height="18" viewBox="0 0 17 18" fill="none" xmlns="http://www.w3.org/2000/svg">
<path d="M7.526 5.61914L3.65907 9.56914C3.47444 9.75129 3.22715 9.85209 2.97046 9.84981C2.71378 9.84753 2.46824 9.74236 2.28673 9.55695C2.10522 9.37155 2.00227 9.12073 2.00004 8.85854C1.99781 8.59634 2.09648 8.34374 2.27481 8.15514L7.81284 2.49814C7.90355 2.40495 8.01139 2.331 8.13017 2.28054C8.24895 2.23008 8.37633 2.2041 8.50497 2.2041C8.63362 2.2041 8.76099 2.23008 8.87978 2.28054C8.99856 2.331 9.1064 2.40495 9.19711 2.49814L14.7351 8.15514C14.9091 8.34459 15.004 8.59572 14.9999 8.85541C14.9957 9.11509 14.8929 9.36294 14.713 9.54653C14.5332 9.73011 14.2905 9.83502 14.0362 9.83905C13.782 9.84308 13.5362 9.74593 13.3509 9.56814L9.48394 5.61814V15.2041C9.48394 15.4694 9.3808 15.7237 9.19721 15.9112C9.01362 16.0988 8.76461 16.2041 8.50497 16.2041C8.24534 16.2041 7.99633 16.0988 7.81274 15.9112C7.62915 15.7237 7.526 15.4694 7.526 15.2041V5.61914Z" fill="black"/>
</svg>
